<svg width="33" height="33" viewBox="0 0 33 33" fill="none" xmlns="http://www.w3.org/2000/svg">
<path d="M0 2.33317C0 1.04527 1.07132 0 2.39211 0H29.9732C31.2945 0 32.3654 1.04527 32.3654 2.33317V30.2377C32.3654 31.526 31.2945 32.5704 29.9732 32.5704H2.39211C1.07132 32.5704 0 31.526 0 30.2381V2.33274V2.33317Z" fill="#1971C2"/>
<path d="M10.1768 26.7969V12.0896H5.28834V26.7969H10.1772H10.1768ZM7.73342 10.082C9.43781 10.082 10.4989 8.95255 10.4989 7.5412C10.4668 6.09781 9.4378 5 7.76588 5C6.09268 5 5 6.09781 5 7.5412C5 8.95255 6.06064 10.082 7.70138 10.082H7.73299H7.73342ZM12.8825 26.7969H17.7705V18.5847C17.7705 18.1455 17.8025 17.7056 17.9315 17.392C18.2848 16.5134 19.0892 15.6039 20.4398 15.6039C22.2083 15.6039 22.9161 16.9525 22.9161 18.9298V26.7969H27.8041V18.3643C27.8041 13.847 25.3928 11.7449 22.1767 11.7449C19.5398 11.7449 18.3818 13.2186 17.7385 14.2225H17.7709V12.0901H12.8829C12.9465 13.4698 12.8825 26.7973 12.8825 26.7973V26.7969Z" fill="white"/>
</svg>
