<svg width="111" height="42" viewBox="0 0 111 42" fill="none" xmlns="http://www.w3.org/2000/svg">
<path d="M10.816 32.384C9.17333 32.384 7.69067 32.064 6.368 31.424C5.04533 30.7627 3.98933 29.7707 3.2 28.448C2.432 27.1253 2.048 25.4507 2.048 23.424V9.6H6.144V23.456C6.144 25.2053 6.56 26.5067 7.392 27.36C8.24533 28.2133 9.41867 28.64 10.912 28.64C12.384 28.64 13.5467 28.2133 14.4 27.36C15.2533 26.5067 15.68 25.2053 15.68 23.456V9.6H19.776V23.424C19.776 25.4507 19.3707 27.1253 18.56 28.448C17.7493 29.7707 16.6613 30.7627 15.296 31.424C13.952 32.064 12.4587 32.384 10.816 32.384ZM23.8613 39.04V16.128H27.5093L27.9573 18.4C28.4693 17.696 29.1413 17.0773 29.9733 16.544C30.8266 16.0107 31.9253 15.744 33.2693 15.744C34.7626 15.744 36.0959 16.1067 37.2693 16.832C38.4426 17.5573 39.3706 18.5493 40.0533 19.808C40.7359 21.0667 41.0773 22.496 41.0773 24.096C41.0773 25.696 40.7359 27.1253 40.0533 28.384C39.3706 29.6213 38.4426 30.6027 37.2693 31.328C36.0959 32.032 34.7626 32.384 33.2693 32.384C32.0746 32.384 31.0293 32.16 30.1333 31.712C29.2373 31.264 28.5119 30.6347 27.9573 29.824V39.04H23.8613ZM32.4053 28.8C33.7066 28.8 34.7839 28.3627 35.6373 27.488C36.4906 26.6133 36.9173 25.4827 36.9173 24.096C36.9173 22.7093 36.4906 21.568 35.6373 20.672C34.7839 19.776 33.7066 19.328 32.4053 19.328C31.0826 19.328 29.9946 19.776 29.1413 20.672C28.3093 21.5467 27.8933 22.6773 27.8933 24.064C27.8933 25.4507 28.3093 26.592 29.1413 27.488C29.9946 28.3627 31.0826 28.8 32.4053 28.8Z" fill="#212529"/>
<path d="M52.824 32.384C51.1813 32.384 49.7307 32.1067 48.472 31.552C47.2133 30.976 46.2213 30.1653 45.496 29.12C44.7707 28.0533 44.3973 26.7627 44.376 25.248H48.696C48.7387 26.2933 49.112 27.1787 49.816 27.904C50.5413 28.608 51.5333 28.96 52.792 28.96C53.88 28.96 54.744 28.704 55.384 28.192C56.024 27.6587 56.344 26.9547 56.344 26.08C56.344 25.1627 56.056 24.448 55.48 23.936C54.9253 23.424 54.1787 23.008 53.24 22.688C52.3013 22.368 51.2987 22.0267 50.232 21.664C48.504 21.0667 47.1813 20.2987 46.264 19.36C45.368 18.4213 44.92 17.1733 44.92 15.616C44.8987 14.2933 45.208 13.1627 45.848 12.224C46.5093 11.264 47.4053 10.528 48.536 10.016C49.6667 9.48267 50.968 9.216 52.44 9.216C53.9333 9.216 55.2453 9.48267 56.376 10.016C57.528 10.5493 58.424 11.296 59.064 12.256C59.7253 13.216 60.0773 14.3573 60.12 15.68H55.736C55.7147 14.8907 55.4053 14.1973 54.808 13.6C54.232 12.9813 53.4213 12.672 52.376 12.672C51.48 12.6507 50.7227 12.8747 50.104 13.344C49.5067 13.792 49.208 14.4533 49.208 15.328C49.208 16.0747 49.4427 16.672 49.912 17.12C50.3813 17.5467 51.0213 17.9093 51.832 18.208C52.6427 18.5067 53.5707 18.8267 54.616 19.168C55.7253 19.552 56.7387 20 57.656 20.512C58.5733 21.024 59.3093 21.7067 59.864 22.56C60.4187 23.392 60.696 24.4693 60.696 25.792C60.696 26.9653 60.3973 28.0533 59.8 29.056C59.2027 30.0587 58.3173 30.8693 57.144 31.488C55.9707 32.0853 54.5307 32.384 52.824 32.384ZM66.3818 13.664C65.6351 13.664 65.0164 13.44 64.5258 12.992C64.0564 12.544 63.8218 11.9787 63.8218 11.296C63.8218 10.6133 64.0564 10.0587 64.5258 9.632C65.0164 9.184 65.6351 8.96 66.3818 8.96C67.1284 8.96 67.7364 9.184 68.2058 9.632C68.6964 10.0587 68.9418 10.6133 68.9418 11.296C68.9418 11.9787 68.6964 12.544 68.2058 12.992C67.7364 13.44 67.1284 13.664 66.3818 13.664ZM64.3338 32V16.128H68.4298V32H64.3338ZM80.001 32.384C78.5077 32.384 77.1743 32.0213 76.001 31.296C74.8277 30.5707 73.8997 29.5787 73.217 28.32C72.5343 27.0613 72.193 25.632 72.193 24.032C72.193 22.432 72.5343 21.0133 73.217 19.776C73.8997 18.5173 74.8277 17.536 76.001 16.832C77.1743 16.1067 78.5077 15.744 80.001 15.744C81.1957 15.744 82.241 15.968 83.137 16.416C84.033 16.864 84.7583 17.4933 85.313 18.304V8.96H89.409V32H85.761L85.313 29.728C84.801 30.432 84.1183 31.0507 83.265 31.584C82.433 32.1173 81.345 32.384 80.001 32.384ZM80.865 28.8C82.1877 28.8 83.265 28.3627 84.097 27.488C84.9503 26.592 85.377 25.4507 85.377 24.064C85.377 22.6773 84.9503 21.5467 84.097 20.672C83.265 19.776 82.1877 19.328 80.865 19.328C79.5637 19.328 78.4863 19.7653 77.633 20.64C76.7797 21.5147 76.353 22.6453 76.353 24.032C76.353 25.4187 76.7797 26.56 77.633 27.456C78.4863 28.352 79.5637 28.8 80.865 28.8ZM101.292 32.384C99.692 32.384 98.2733 32.0427 97.036 31.36C95.7987 30.6773 94.828 29.7173 94.124 28.48C93.42 27.2427 93.068 25.8133 93.068 24.192C93.068 22.5493 93.4093 21.088 94.092 19.808C94.796 18.528 95.756 17.536 96.972 16.832C98.2093 16.1067 99.66 15.744 101.324 15.744C102.881 15.744 104.257 16.0853 105.452 16.768C106.647 17.4507 107.575 18.3893 108.236 19.584C108.919 20.7573 109.26 22.0693 109.26 23.52C109.26 23.7547 109.249 24 109.228 24.256C109.228 24.512 109.217 24.7787 109.196 25.056H97.132C97.2173 26.2933 97.644 27.264 98.412 27.968C99.2013 28.672 100.151 29.024 101.26 29.024C102.092 29.024 102.785 28.8427 103.34 28.48C103.916 28.096 104.343 27.6053 104.62 27.008H108.78C108.481 28.0107 107.98 28.928 107.276 29.76C106.593 30.5707 105.74 31.2107 104.716 31.68C103.713 32.1493 102.572 32.384 101.292 32.384ZM101.324 19.072C100.321 19.072 99.436 19.36 98.668 19.936C97.9 20.4907 97.4093 21.344 97.196 22.496H105.1C105.036 21.4507 104.652 20.6187 103.948 20C103.244 19.3813 102.369 19.072 101.324 19.072Z" fill="white"/>
</svg>
